<svg width="20" height="20" viewBox="0 0 20 20" fill="none" xmlns="http://www.w3.org/2000/svg">
<g id="User Interface / Atm Card">
<path id="Vector" d="M15.8333 3.75H4.16666C3.50362 3.75 2.86773 4.01339 2.39889 4.48223C1.93005 4.95107 1.66666 5.58696 1.66666 6.25V13.75C1.66666 14.413 1.93005 15.0489 2.39889 15.5178C2.86773 15.9866 3.50362 16.25 4.16666 16.25H15.8333C16.4964 16.25 17.1322 15.9866 17.6011 15.5178C18.0699 15.0489 18.3333 14.413 18.3333 13.75V6.25C18.3333 5.58696 18.0699 4.95107 17.6011 4.48223C17.1322 4.01339 16.4964 3.75 15.8333 3.75ZM16.6667 13.75C16.6667 13.971 16.5789 14.183 16.4226 14.3393C16.2663 14.4955 16.0543 14.5833 15.8333 14.5833H4.16666C3.94564 14.5833 3.73368 14.4955 3.5774 14.3393C3.42112 14.183 3.33332 13.971 3.33332 13.75V6.25C3.33332 6.02899 3.42112 5.81702 3.5774 5.66074C3.73368 5.50446 3.94564 5.41667 4.16666 5.41667H15.8333C16.0543 5.41667 16.2663 5.50446 16.4226 5.66074C16.5789 5.81702 16.6667 6.02899 16.6667 6.25V13.75ZM13.3333 8.75C12.8903 8.7531 12.456 8.87389 12.075 9.1C11.6954 8.87477 11.263 8.75405 10.8216 8.7501C10.3803 8.74615 9.94574 8.85912 9.56219 9.07752C9.17864 9.29592 8.85975 9.61197 8.63793 9.99355C8.4161 10.3751 8.29925 10.8086 8.29925 11.25C8.29925 11.6914 8.4161 12.1249 8.63793 12.5065C8.85975 12.888 9.17864 13.2041 9.56219 13.4225C9.94574 13.6409 10.3803 13.7538 10.8216 13.7499C11.263 13.746 11.6954 13.6252 12.075 13.4C12.4065 13.5967 12.779 13.714 13.1633 13.7429C13.5477 13.7718 13.9336 13.7114 14.2907 13.5664C14.6479 13.4215 14.9667 13.1959 15.2222 12.9074C15.4778 12.6188 15.6631 12.275 15.7638 11.903C15.8645 11.5309 15.8778 11.1406 15.8027 10.7625C15.7275 10.3845 15.566 10.0289 15.3306 9.72364C15.0953 9.41836 14.7926 9.17163 14.4461 9.00273C14.0996 8.83383 13.7188 8.74733 13.3333 8.75ZM10.975 12.0833C10.9279 12.0874 10.8805 12.0874 10.8333 12.0833C10.6123 12.0833 10.4003 11.9955 10.2441 11.8393C10.0878 11.683 9.99999 11.471 9.99999 11.25C9.99999 11.029 10.0878 10.817 10.2441 10.6607C10.4003 10.5045 10.6123 10.4167 10.8333 10.4167C10.8805 10.4126 10.9279 10.4126 10.975 10.4167C10.7864 10.9333 10.7864 11.5 10.975 12.0167V12.0833ZM13.3333 12.0833C13.1685 12.0833 13.0074 12.0345 12.8703 11.9429C12.7333 11.8513 12.6265 11.7212 12.5634 11.5689C12.5004 11.4166 12.4838 11.2491 12.516 11.0874C12.5482 10.9258 12.6275 10.7773 12.7441 10.6607C12.8606 10.5442 13.0091 10.4648 13.1707 10.4327C13.3324 10.4005 13.5 10.417 13.6522 10.4801C13.8045 10.5432 13.9346 10.65 14.0262 10.787C14.1178 10.9241 14.1667 11.0852 14.1667 11.25C14.1667 11.471 14.0789 11.683 13.9226 11.8393C13.7663 11.9955 13.5543 12.0833 13.3333 12.0833Z" fill="#121826"/>
</g>
</svg>
