<svg width="20" height="20" viewBox="0 0 20 20" fill="none" xmlns="http://www.w3.org/2000/svg">
<g id="Business / bank">
<path id="Vector" d="M17.5 8.33331C17.6094 8.33334 17.7178 8.3118 17.8189 8.26994C17.92 8.22807 18.0119 8.16669 18.0893 8.0893C18.1667 8.01191 18.2281 7.92003 18.2699 7.81891C18.3118 7.7178 18.3334 7.60942 18.3333 7.49998V4.99998C18.3334 4.82512 18.2784 4.65469 18.1762 4.51285C18.0739 4.37101 17.9296 4.26497 17.7637 4.20978L10.2637 1.70978C10.0925 1.65281 9.90748 1.65281 9.73631 1.70978L2.23631 4.20978C2.0704 4.26497 1.92608 4.37101 1.82383 4.51285C1.72158 4.65469 1.66658 4.82512 1.66666 4.99998V7.49998C1.66663 7.60942 1.68816 7.7178 1.73003 7.81891C1.7719 7.92003 1.83328 8.01191 1.91067 8.0893C1.98806 8.16669 2.07994 8.22807 2.18105 8.26994C2.28217 8.3118 2.39055 8.33334 2.49999 8.33331H3.33332V14.3202C2.84727 14.4914 2.42613 14.8089 2.12771 15.229C1.8293 15.6491 1.66824 16.1513 1.66666 16.6666V18.3333C1.66663 18.4428 1.68816 18.5511 1.73003 18.6523C1.7719 18.7534 1.83328 18.8452 1.91067 18.9226C1.98806 19 2.07994 19.0614 2.18105 19.1033C2.28217 19.1451 2.39055 19.1667 2.49999 19.1666H17.5C17.6094 19.1667 17.7178 19.1451 17.8189 19.1033C17.92 19.0614 18.0119 19 18.0893 18.9226C18.1667 18.8452 18.2281 18.7534 18.2699 18.6523C18.3118 18.5511 18.3334 18.4428 18.3333 18.3333V16.6666C18.3317 16.1513 18.1707 15.6491 17.8723 15.229C17.5739 14.8089 17.1527 14.4914 16.6667 14.3202V8.33331H17.5ZM16.6667 17.5H3.33332V16.6666C3.33354 16.4457 3.42141 16.2339 3.57764 16.0776C3.73388 15.9214 3.94571 15.8335 4.16666 15.8333H15.8333C16.0543 15.8335 16.2661 15.9214 16.4223 16.0776C16.5786 16.2339 16.6664 16.4457 16.6667 16.6666V17.5ZM4.99999 14.1666V8.33331H6.66666V14.1666H4.99999ZM8.33332 14.1666V8.33331H11.6667V14.1666H8.33332ZM13.3333 14.1666V8.33331H15V14.1666H13.3333ZM3.33332 6.66664V5.60056L9.99999 3.37806L16.6667 5.60056V6.66664H3.33332Z" fill="#121826"/>
</g>
</svg>
