<svg width="20" height="20" viewBox="0 0 20 20" fill="none" xmlns="http://www.w3.org/2000/svg">
<g id="Sports / card">
<path id="Vector" d="M16.6667 8.625L11.85 2.45C11.608 2.19808 11.3169 1.99855 10.9946 1.8638C10.6724 1.72904 10.3259 1.66192 9.97664 1.66661C9.62738 1.6713 9.2828 1.74769 8.96428 1.89105C8.64576 2.03441 8.36009 2.24167 8.12499 2.5L3.33332 8.625C3.06802 9.03462 2.92627 9.51197 2.92499 10C2.93891 10.4678 3.08008 10.923 3.33332 11.3167L3.38332 11.375L8.16665 17.55C8.40216 17.7993 8.68646 17.9976 9.00186 18.1323C9.31726 18.2671 9.65701 18.3355 9.99999 18.3333C10.3546 18.333 10.7052 18.2587 11.0295 18.1152C11.3538 17.9718 11.6446 17.7622 11.8833 17.5L16.6667 11.375C16.9281 10.9619 17.0627 10.4813 17.0538 9.9925C17.0449 9.50373 16.8929 9.02829 16.6167 8.625H16.6667ZM15.3583 10.4083L10.6333 16.425C10.4741 16.5717 10.2684 16.6578 10.0522 16.6685C9.83599 16.6791 9.62288 16.6136 9.44999 16.4833L4.70832 10.3917C4.63753 10.2728 4.59743 10.1382 4.59165 10C4.59288 9.87054 4.62127 9.74279 4.67499 9.625L9.39999 3.60833C9.55923 3.46167 9.76486 3.37551 9.98109 3.36485C10.1973 3.35419 10.4104 3.41971 10.5833 3.55L15.275 9.61666C15.3616 9.75079 15.4079 9.90699 15.4083 10.0667C15.4026 10.1848 15.3744 10.3008 15.325 10.4083H15.3583Z" fill="#121826"/>
</g>
</svg>
