<svg width="24" height="24" viewBox="0 0 24 24" fill="none" xmlns="http://www.w3.org/2000/svg">
<g id="Arrows / left arrow">
<path id="Vector" d="M12 12.71L8.46001 9.17C8.27265 8.98374 8.0192 8.8792 7.75501 8.8792C7.49082 8.8792 7.23737 8.98374 7.05001 9.17C6.95628 9.26296 6.88189 9.37356 6.83112 9.49542C6.78035 9.61728 6.75421 9.74798 6.75421 9.88C6.75421 10.012 6.78035 10.1427 6.83112 10.2646C6.88189 10.3864 6.95628 10.497 7.05001 10.59L11.29 14.83C11.383 14.9237 11.4936 14.9981 11.6154 15.0489C11.7373 15.0997 11.868 15.1258 12 15.1258C12.132 15.1258 12.2627 15.0997 12.3846 15.0489C12.5064 14.9981 12.617 14.9237 12.71 14.83L17 10.59C17.0927 10.4966 17.166 10.3857 17.2158 10.2639C17.2655 10.1421 17.2908 10.0116 17.29 9.87999C17.2908 9.74839 17.2655 9.61793 17.2158 9.49609C17.166 9.37425 17.0927 9.26343 17 9.16999C16.8126 8.98374 16.5592 8.8792 16.295 8.8792C16.0308 8.8792 15.7774 8.98374 15.59 9.16999L12 12.71Z" fill="#6C727F"/>
</g>
</svg>
