<svg width="16" height="16" viewBox="0 0 16 16" fill="none" xmlns="http://www.w3.org/2000/svg">
<g id="Security / unlock key alt">
<path id="Vector" d="M7.99999 8.66667C7.82318 8.66667 7.65361 8.73691 7.52858 8.86193C7.40356 8.98695 7.33332 9.15652 7.33332 9.33333V11.3333C7.33332 11.5101 7.40356 11.6797 7.52858 11.8047C7.65361 11.9298 7.82318 12 7.99999 12C8.1768 12 8.34637 11.9298 8.47139 11.8047C8.59642 11.6797 8.66666 11.5101 8.66666 11.3333V9.33333C8.66666 9.15652 8.59642 8.98695 8.47139 8.86193C8.34637 8.73691 8.1768 8.66667 7.99999 8.66667ZM11.3333 6H5.99999V4.66667C5.99902 4.27079 6.11555 3.88353 6.33483 3.55394C6.55411 3.22434 6.86627 2.96723 7.23178 2.81517C7.59729 2.66312 7.9997 2.62295 8.38805 2.69976C8.7764 2.77658 9.13322 2.96691 9.41332 3.24667C9.66395 3.50271 9.84323 3.81988 9.93332 4.16667C9.95521 4.25159 9.99361 4.33137 10.0463 4.40145C10.099 4.47153 10.1651 4.53054 10.2406 4.57511C10.3161 4.61969 10.3997 4.64895 10.4865 4.66122C10.5733 4.6735 10.6617 4.66855 10.7467 4.64667C10.8316 4.62478 10.9114 4.58638 10.9814 4.53366C11.0515 4.48094 11.1105 4.41494 11.1551 4.33941C11.1997 4.26389 11.2289 4.18032 11.2412 4.09349C11.2535 4.00666 11.2485 3.91825 11.2267 3.83333C11.0748 3.25653 10.7735 2.72996 10.3533 2.30667C9.88678 1.84158 9.29288 1.52516 8.64663 1.39736C8.00038 1.26957 7.33075 1.33613 6.7223 1.58864C6.11385 1.84115 5.59386 2.26829 5.22799 2.81612C4.86213 3.36395 4.6668 4.0079 4.66666 4.66667V6C4.13622 6 3.62752 6.21071 3.25244 6.58579C2.87737 6.96086 2.66666 7.46957 2.66666 8V12.6667C2.66666 13.1971 2.87737 13.7058 3.25244 14.0809C3.62752 14.456 4.13622 14.6667 4.66666 14.6667H11.3333C11.8638 14.6667 12.3725 14.456 12.7475 14.0809C13.1226 13.7058 13.3333 13.1971 13.3333 12.6667V8C13.3333 7.46957 13.1226 6.96086 12.7475 6.58579C12.3725 6.21071 11.8638 6 11.3333 6ZM12 12.6667C12 12.8435 11.9298 13.013 11.8047 13.1381C11.6797 13.2631 11.5101 13.3333 11.3333 13.3333H4.66666C4.48985 13.3333 4.32028 13.2631 4.19525 13.1381C4.07023 13.013 3.99999 12.8435 3.99999 12.6667V8C3.99999 7.82319 4.07023 7.65362 4.19525 7.5286C4.32028 7.40357 4.48985 7.33333 4.66666 7.33333H11.3333C11.5101 7.33333 11.6797 7.40357 11.8047 7.5286C11.9298 7.65362 12 7.82319 12 8V12.6667Z" fill="#6C727F"/>
</g>
</svg>
